<?xml version="1.0" encoding="utf-8"?>
<!-- Generator: Adobe Illustrator 19.2.1, SVG Export Plug-In . SVG Version: 6.00 Build 0)  -->
<svg version="1.1" id="layer" xmlns="http://www.w3.org/2000/svg" xmlns:xlink="http://www.w3.org/1999/xlink" x="0px" y="0px"
	 viewBox="0 0 652 652" style="enable-background:new 0 0 652 652;" xml:space="preserve">
<style type="text/css">
	.st0{fill:#231815;}
	.st1{fill:#FFFFFF;}
	.st2{fill:#FFF100;}
	.st3{fill:#FFE100;}
	.st4{fill:#FCC900;}
	.st5{fill:#241B1E;}
</style>
<g>
	<path class="st0" d="M516.1,231.7c0,0,75.8,14.9,92.4,17.3l-3.9,20.2l15.9,2.8L578.4,488l-207.8-40l1.8-10.3l-16.6-3.5
		c0,0-74,14-101.6,21.9c-28.3,8.1-68.7,20.5-83.9,26.9l-7.4-21.6l-20.9,13.8c0,0-39.3-117.2-121.4-168.1c0,0,40-31.9,54.2-41.8
		c0,0-6.7-14.2-34.7-40.7c0,0,80.4-11.7,134.2-26.2c62.2-16.8,115-35.4,131.7-41.4l11.3,41.1l2.5-37.9c0,0,74.3,31.2,207.1,49.9
		C526.7,210.1,517.8,227.1,516.1,231.7"/>
	<path class="st1" d="M469.7,398c-60.1-11.6-155.4-7.5-155.4-7.5l17.7-210.3c0,0,58,22.8,167.2,39
		C486.3,247.2,470.8,272.9,469.7,398 M500,213.1c-107.2-15.9-165.3-38.4-165.9-38.6l-7.8-3c0,0-0.7,8.3-0.7,8.3L308,390l-0.6,7
		l7-0.3c0.9,0,95.4-3.9,154,7.4l7.3,1.4l0.1-7.4c1-116.4,14.6-145.6,26.6-171.3l2.3-4.9l3.5-7.5C508.3,214.3,500,213.1,500,213.1"/>
	<path class="st1" d="M145.6,448.8C102.2,344.2,43.5,307.5,43.5,307.5s59.4-51.2,121.2-79c41.9,75.1,86.4,174.2,86.4,174.2
		S187.7,419.2,145.6,448.8 M256.9,400c-0.4-1-45.2-100.2-86.7-174.7l-2.8-5.1l-5.3,2.4c-62,27.8-120.3,77.9-122.8,80l-6.6,5.7
		l7.3,4.6c0.6,0.4,57.7,37.2,99.6,138.4l3,7.4l6.5-4.6c40.6-28.7,102.8-45.1,103.5-45.2l7.3-1.9L256.9,400z"/>
	<path class="st2" d="M499.1,219.2c-12.8,28-28.4,53.7-29.5,178.8c-60-11.6-155.4-7.5-155.4-7.5l17.7-210.3
		C331.9,180.2,389.8,203,499.1,219.2"/>
	<path class="st2" d="M43.5,307.5c0,0,58.8,36.7,102.1,141.4c42.1-29.7,105.5-46.2,105.5-46.2s-44.6-99.1-86.4-174.2
		C102.8,256.3,43.5,307.5,43.5,307.5"/>
	<path class="st1" d="M177.3,457.8C124.6,291.3,68.4,234.4,68.4,234.4s131.1-23.8,224.5-58.9c35.9,105.8,46.2,239.7,46.2,239.7
		S211.7,442.9,177.3,457.8 M345.5,414.7c-0.1-1.3-10.8-135.9-46.5-241.2l-2.1-6.3l-6.2,2.3C198.9,204,68.6,227.9,67.3,228.1
		l-11.9,2.2c0,0,8.4,8.5,8.5,8.6c0.6,0.6,55.9,58.3,107.4,220.9l2.1,6.7l6.5-2.8c33.4-14.5,159.3-42,160.6-42.2l5.4-1.2L345.5,414.7
		z"/>
	<path class="st3" d="M68.4,234.4c0,0,56.2,57,108.9,223.4c34.4-14.9,161.8-42.6,161.8-42.6s-10.4-133.9-46.2-239.7
		C199.5,210.6,68.4,234.4,68.4,234.4"/>
</g>
<path class="st1" d="M557.2,449.9l-189.3-35.6l35.5-189.6l189.3,35.6L557.2,449.9z M593.8,254.2l-189.3-35.6l-6.1-1.1l-1.1,6.1
	l-35.5,189.6l-1.1,6.1l6.1,1.1L556,456l6.1,1.2l1.1-6.1l35.5-189.6l1.1-6.1L593.8,254.2z"/>
<rect x="383.8" y="240.9" transform="matrix(0.1849 -0.9828 0.9828 0.1849 60.0226 746.8996)" class="st4" width="192.9" height="192.6"/>
<g>
	<path class="st5" d="M158.5,311.8c7.6,0,13.1-3,13.1-11.6c0-9.2-10.5-10.5-17.4-10.5H145v22.1H158.5z M112.5,365.5V264.1h48.9
		c29.1,0,43.2,13.4,43.2,34.2c0,21.8-13,35.6-42.1,35.6h-16.8v31.5H112.5z"/>
</g>
<rect x="425" y="316.6" class="st5" width="37.7" height="25.6"/>
<path class="st5" d="M469,261.4h29.3v20.8H469V261.4z M469,291.7h29.3v73.8H469V291.7z"/>
<g>
	<path class="st5" d="M555.6,365.5c-38.5,2.1-43.1-0.6-43.1-26.1v-30.9h-10.4v-16.9H513v-23h28.9v23h14.1v16.9h-14.1v26.8
		c0,6.8,1,9.2,9.2,9.2h4.6V365.5z"/>
	<path class="st5" d="M232.5,328.6c0,14,5.2,20,12.7,20c7.9,0,12.7-6.1,12.7-20c0-10.8-4.8-19-12.4-18.6
		C235.5,310,232.5,320.3,232.5,328.6 M245.8,289.6c26.1,0,42.1,15.4,42.1,38.3c0,27-18.3,39.7-42,39.7c-23.7,0-42-13-42-38.2
		C204,303.8,220.9,289.6,245.8,289.6"/>
	<path class="st5" d="M318.5,342.4c0,3,1.1,5.2,3.1,6.8c1.8,1.4,4.4,2.3,7.2,2.3c4.5,0,9.3-1.4,9.3-6.6c0-11.8-45.2-2.4-45.2-31
		c0-18.9,19.6-24.4,34.9-24.4c16.1,0,34.9,3.7,36.6,23.2h-26.6c-0.3-2.4-1.3-4.1-2.8-5.4c-1.6-1.3-3.7-1.8-5.9-1.8
		c-5.1,0-8.3,1.5-8.3,5.2c0,10.3,46.6,3.4,46.6,31c0,15.4-12.7,25.8-39.7,25.8c-16.9,0-35.5-5.2-37-25.1H318.5z"/>
	<path class="st5" d="M420.5,365.5c-38.5,2.1-43.1-0.6-43.1-26.1v-30.9H367v-16.9h10.8v-23h28.9v23h14.1v16.9h-14.1v26.8
		c0,6.8,1,9.2,9.2,9.2h4.6V365.5z"/>
	<path class="st0" d="M564.4,275.2c1.8,0,4.6,0.3,4.6-2.3c0-2-1.8-2.2-3.4-2.2h-3.7v4.6H564.4z M570.4,282.4h-1.9l-3.7-6h-2.9v6
		h-1.6v-13h5.7c1.1,0,2.2,0.1,3.2,0.6c1,0.5,1.5,1.7,1.5,2.8c0,2.6-1.8,3.5-4.1,3.6L570.4,282.4z M574.8,275.9
		c0-5.6-4.6-10.2-10.2-10.2c-5.7,0-10.2,4.5-10.2,10.2c0,5.7,4.5,10.2,10.2,10.2C570.3,286.1,574.8,281.6,574.8,275.9 M553,275.9
		c0-6.4,5.2-11.6,11.6-11.6c6.4,0,11.6,5.2,11.6,11.6c0,6.4-5.1,11.6-11.6,11.6C558.2,287.5,553,282.3,553,275.9"/>
	<path class="st0" d="M471.5,386.4h5.8c4.8,0,6.4-1.7,6.4-4.6c0-3.1-1.8-4.2-6.9-4.2h-5.3V386.4z M471.5,398.1h5.9
		c5.1,0,7.5-0.7,7.5-4.9c0-4-2.8-4.8-7.2-4.8h-6.2V398.1z M469.2,400.1v-24.5h8.8c5.7,0,8,2.5,8,6.2c0,3.4-1.9,4.9-3.9,5.3v0.1
		c3.4,0.5,5,2.9,5,6.1c0,5.1-3.3,6.9-8,6.9H469.2z"/>
	<path class="st0" d="M493.7,400.1h-2v-17.6h2v3.3h0.1c1.1-2.8,2.8-3.8,5.7-3.8v2.2c-4.6-0.1-5.8,3.3-5.8,7.2V400.1z"/>
	<path class="st0" d="M514.4,390.8c-1.7,0.7-3.5,0.9-5.3,1c-3.1,0.2-5,1.4-5,3.7c0,2.1,1.9,3.2,3.8,3.2c3.2,0,6.4-1.6,6.4-5.1V390.8
		z M510.9,389.8c0.7-0.1,2-0.3,2.7-0.6c0.7-0.3,0.8-1.2,0.8-1.8c0-2.1-1.2-3.6-4.4-3.6c-2.8,0-4.8,0.9-5.1,4h-2.1
		c0.3-4.1,3.4-5.8,7.2-5.8c3.6,0,6.4,1.4,6.4,5.5v9.6c0,1.6,0.4,2,2.1,1.4v1.6c-0.3,0.1-1,0.3-1.6,0.3c-0.3,0-0.6,0-0.9-0.1
		c-1.4-0.2-1.6-1.4-1.6-2.6c-1.7,1.9-4,2.9-6.6,2.9c-3.1,0-5.9-1.7-5.9-5.1c0-3,2-4.8,6.1-5.3L510.9,389.8z"/>
	<path class="st0" d="M523.8,400.1h-2v-17.6h2v2.4c1.6-1.7,3.2-2.9,5.7-2.9c2.1,0,4.1,0.7,5.4,2.5c0.8,1.3,0.9,2.6,0.9,4v11.5h-2
		v-11.5c0-3.2-1.3-4.8-4.6-4.8c-2.5,0-4.2,1.6-4.9,3.4c-0.4,1.1-0.4,2.1-0.4,3.3V400.1z"/>
	<path class="st0" d="M548.3,383.8c-4.2,0-6.2,3.6-6,8c0,4.4,2.6,6.9,6,6.9c3.8,0,5.9-3.3,5.9-7.5
		C554.2,387.2,552,383.8,548.3,383.8 M554.2,375.6h2v24.5h-2V397h-0.1c-1.2,2.3-3.9,3.6-6.1,3.6c-5.7,0-7.9-4-7.9-9.2
		c0-4.9,2.5-9.3,7.8-9.3c2.5,0,5,1.2,6.3,3.3V375.6z"/>
</g>
</svg>
